<?xml version="1.0" encoding="UTF-8"?>
<!DOCTYPE svg PUBLIC "-//W3C//DTD SVG 1.1//EN" "http://www.w3.org/Graphics/SVG/1.1/DTD/svg11.dtd">
<!-- Creator: CorelDRAW X7 -->
<svg xmlns="http://www.w3.org/2000/svg" xml:space="preserve" width="59mm" height="22mm" version="1.1" style="shape-rendering:geometricPrecision; text-rendering:geometricPrecision; image-rendering:optimizeQuality; fill-rule:evenodd; clip-rule:evenodd"
viewBox="0 0 5900 2200"
 xmlns:xlink="http://www.w3.org/1999/xlink">
 <defs>
  <style type="text/css">
   <![CDATA[
    .str0 {stroke:#BB0012;stroke-width:20}
    .fil2 {fill:#BB0012}
    .fil1 {fill:#D8B06A}
    .fil0 {fill:#D8B06A;fill-rule:nonzero}
   ]]>
  </style>
    <clipPath id="id0">
     <rect x="3878" y="59" width="1970" height="920"/>
    </clipPath>
    <clipPath id="id1">
     <rect x="28" y="59" width="1970" height="920"/>
    </clipPath>
    <clipPath id="id2">
     <path d="M28 979l1970 0 0 -920 -1970 0 0 920z"/>
    </clipPath>
    <clipPath id="id3">
     <rect x="28" y="59" width="1970" height="920"/>
    </clipPath>
 </defs>
 <g id="Слой_x0020_1">
  <metadata id="CorelCorpID_0Corel-Layer"/>
  <g id="_2211352800768">
   <path class="fil0" d="M969 1067l36 0c53,0 101,20 141,60 41,40 62,86 62,140 0,53 -21,100 -63,139 -41,39 -86,59 -134,59l-6 0 215 226 -36 0 -189 -198 0 198 -26 0 0 -624zm26 374l15 0c45,0 85,-17 119,-52 35,-34 52,-75 52,-122 0,-47 -18,-88 -53,-123 -36,-35 -76,-52 -122,-52l-11 0 0 349zm474 259c-54,0 -99,-19 -138,-59 -38,-40 -57,-86 -57,-139 0,-52 20,-98 58,-136 39,-39 86,-58 140,-58 55,0 102,19 140,58 39,38 58,84 58,137 0,53 -19,99 -57,138 -37,40 -83,59 -137,59l-7 0zm174 -196c0,-46 -16,-87 -50,-121 -33,-35 -74,-52 -120,-52 -47,0 -87,17 -121,52 -34,35 -51,75 -51,122 0,46 17,87 51,121 34,34 74,51 121,51 47,0 87,-17 120,-51 34,-34 50,-75 50,-122zm188 -174c-15,0 -28,5 -39,14 -11,10 -16,21 -16,35 0,14 6,27 18,39 13,11 28,22 45,32 18,9 35,20 53,31 18,11 33,25 45,42 13,17 19,37 19,59 0,33 -12,61 -37,84 -25,23 -54,34 -89,34 -22,0 -43,-4 -62,-14 -19,-10 -33,-23 -42,-39l0 -40c21,47 55,70 101,70 29,0 53,-9 73,-27 20,-17 30,-37 30,-59 0,-22 -7,-40 -19,-55 -13,-15 -28,-28 -46,-39 -17,-10 -35,-21 -52,-31 -18,-10 -33,-23 -45,-37 -13,-15 -19,-32 -19,-52 0,-19 8,-36 24,-50 16,-13 36,-20 61,-20 25,0 46,10 64,29l0 34c-18,-26 -40,-40 -67,-40zm391 371l-7 0c-53,0 -99,-20 -138,-59 -39,-40 -58,-86 -58,-139 0,-52 19,-98 58,-137 39,-38 87,-57 144,-57 57,0 106,22 147,68l-261 258c36,28 70,43 104,43 33,0 63,-8 89,-23 26,-15 48,-36 65,-61l0 42c-39,44 -87,65 -143,65zm-8 -369c-45,0 -84,17 -118,51 -34,34 -51,73 -51,118 0,44 15,83 44,116l242 -240c-34,-30 -73,-45 -117,-45zm885 -265l0 624 -27 0 0 -591 -295 603 -293 -603 0 591 -25 0 0 -624 40 0 281 576 281 -576 38 0zm486 250l0 374 -27 0 0 -93c-15,32 -39,57 -70,75 -31,18 -64,27 -100,27 -54,0 -100,-19 -139,-57 -39,-39 -59,-85 -59,-139 0,-54 20,-100 59,-138 39,-39 85,-58 139,-58 36,0 70,9 102,28 33,19 55,44 68,75l0 -94 27 0zm-368 188c0,46 17,87 51,121 34,34 75,51 122,51 47,0 87,-17 120,-51 33,-34 50,-75 50,-122 0,-46 -17,-87 -51,-121 -33,-35 -73,-52 -120,-52 -46,0 -87,17 -121,52 -34,35 -51,75 -51,122zm686 -137c-24,-25 -51,-37 -80,-37 -30,0 -56,11 -78,33 -23,23 -34,48 -34,78l0 249 -26 0 0 -374 26 0 0 56c10,-19 26,-35 47,-47 21,-12 44,-18 70,-18 26,0 51,9 75,26l0 34zm108 -50l0 373 -26 0 0 -373 26 0zm-13 -92c-16,0 -24,-7 -24,-22 0,-15 8,-23 24,-23 16,0 24,8 24,23 0,15 -8,22 -24,22zm151 465l-27 0 0 -374 27 0 0 76c28,-57 76,-85 144,-85 47,0 86,16 118,48 31,32 47,71 47,117l0 218 -27 0 0 -218c0,-38 -13,-71 -40,-100 -27,-28 -59,-42 -98,-42 -38,0 -72,14 -101,42 -29,29 -43,62 -43,100l0 218zm596 10l-7 0c-53,0 -99,-20 -138,-59 -39,-40 -59,-86 -59,-139 0,-52 20,-98 58,-137 39,-38 87,-57 144,-57 57,0 107,22 148,68l-262 258c36,28 71,43 104,43 34,0 63,-8 90,-23 26,-15 48,-36 65,-61l0 42c-39,44 -87,65 -143,65zm-9 -369c-44,0 -83,17 -117,51 -34,34 -51,73 -51,118 0,44 15,83 44,116l242 -240c-34,-30 -74,-45 -118,-45z"/>
   <path class="fil1" d="M2061 427c24,72 108,125 173,112l139 70c1,0 4,1 3,1 -85,0 -158,27 -167,35 -8,8 94,117 214,-15 1,-1 2,0 3,1 49,19 92,34 140,47 12,3 -80,12 -92,14 -43,9 -69,22 -130,67 -1,1 3,1 6,2 37,7 86,10 128,-2 42,-13 70,-39 123,-72l0 0c41,12 85,22 125,30 2,1 8,1 6,1 -92,38 -138,69 -148,107 0,1 1,1 1,1 29,4 120,-12 181,-102 1,-1 3,1 4,1 53,9 101,13 153,16 0,0 2,0 1,0 -52,26 -70,27 -109,124 -1,1 0,1 1,1 30,6 100,-29 158,-124 0,0 1,0 2,0 68,0 136,-5 202,-17 1,0 3,-1 3,-1 -44,43 -64,102 -61,122 0,0 1,0 1,0 11,-1 101,-47 120,-134 0,0 1,0 1,0 60,-14 120,-34 179,-58 1,0 2,-1 2,-1 -43,28 -56,77 -53,95 0,0 1,0 1,0 0,0 0,0 0,0 25,3 86,-31 85,-109 0,-1 1,0 1,-1 105,-47 208,-111 309,-192 -132,83 -265,146 -399,188 0,1 -2,2 -2,1 0,0 0,0 0,0 -11,-39 -92,-89 -118,-81 0,0 0,0 1,0 0,0 0,0 0,1 7,27 74,87 91,88 0,0 0,0 0,0 -45,13 -91,24 -137,33 -1,0 -4,3 -4,1 -20,-75 -113,-108 -157,-110 -2,0 -1,0 -1,1 5,26 52,89 136,113 1,0 -2,0 -3,1 -45,7 -90,12 -135,15 -1,1 -3,2 -3,1 2,-37 -86,-107 -133,-112 -1,0 -1,0 -1,0 7,57 78,116 99,114 2,-1 -2,0 -3,0 -52,2 -104,1 -157,-3 0,0 -1,1 -2,0 -34,-80 -98,-115 -125,-118 -3,0 -5,-3 -5,-1 1,7 10,77 87,115 0,0 -2,0 -2,0 -49,-5 -98,-13 -147,-23 -1,0 -2,-1 -4,-1 -3,0 -3,-44 -21,-86 -18,-38 -54,-74 -60,-83 -1,-1 -2,-2 -2,-2 -1,0 -2,1 -1,3 0,10 -9,41 2,79 10,37 40,80 36,79 0,0 -1,0 -1,0 -40,-10 -80,-21 -120,-34 -1,0 -2,0 -2,0 -35,-108 -104,-167 -135,-178 -4,-1 -2,-2 -3,1 -6,25 11,103 97,163 1,1 -3,-1 -4,-1 -63,-22 -127,-48 -191,-78 -13,-67 -68,-104 -176,-105z"/>
   <g style="clip-path:url(#id0)">
    <image x="3878" y="59" width="1970" height="920" xlink:href="Logo_Images\Logo_ImgID1.png"/>
   </g>
   <g style="clip-path:url(#id1)">
   </g>
   <g style="clip-path:url(#id2)">
    <image x="28" y="59" width="1970" height="920" xlink:href="Logo_Images\Logo_ImgID2.png"/>
   </g>
   <g style="clip-path:url(#id3)">
   </g>
   <path class="fil2 str0" d="M3346 1952c45,0 82,37 82,82 0,45 -37,82 -82,82 -45,0 -82,-37 -82,-82 0,-45 37,-82 82,-82z"/>
   <path class="fil2 str0" d="M2942 1952c45,0 82,37 82,82 0,45 -37,82 -82,82 -45,0 -82,-37 -82,-82 0,-45 37,-82 82,-82z"/>
   <path class="fil2 str0" d="M2528 1952c45,0 82,37 82,82 0,45 -37,82 -82,82 -45,0 -82,-37 -82,-82 0,-45 37,-82 82,-82z"/>
  </g>
 </g>
</svg>
